<svg xmlns="http://www.w3.org/2000/svg" width="64" height="64" viewBox="0 0 64 64" fill="none">
  <rect width="64" height="64" rx="16" fill="#081624"/>
  <path
    d="M32 8L48 14V29C48 39.5 41.2 49.1 32 54C22.8 49.1 16 39.5 16 29V14L32 8Z"
    fill="url(#shield)"
    stroke="#F2C14E"
    stroke-width="2"
  />
  <path
    d="M24 24.5C24 19.8 27.8 16 32.5 16H37V22H33.5C30.5 22 28 24.5 28 27.5V28H36.5V34H28V47H20.5V34H17V28H20.5V27.5C20.5 25.8 20.9 25 24 24.5Z"
    fill="#081624"
  />
  <path
    d="M36.5 18H43.5V24H36.5V18ZM36.5 28H43.5V47H36.5V28Z"
    fill="#081624"
  />
  <defs>
    <linearGradient id="shield" x1="16" y1="8" x2="48" y2="54" gradientUnits="userSpaceOnUse">
      <stop stop-color="#F2C14E"/>
      <stop offset="0.52" stop-color="#2EC4D6"/>
      <stop offset="1" stop-color="#12344C"/>
    </linearGradient>
  </defs>
</svg>
